<?xml version="1.0" encoding="UTF-8"?><svg id="a" xmlns="http://www.w3.org/2000/svg" viewBox="0 0 232.14 19.15"><path d="M9.49,2.62c.41,0,.59,.18,.59,.59v1.64c0,.43-.18,.61-.59,.61H4.41v2.56h4.77c.41,0,.59,.18,.59,.59v1.53c0,.43-.18,.59-.59,.59H4.41v4.03c0,.41-.18,.59-.61,.59H1.71c-.41,0-.59-.18-.59-.59V3.22c0-.41,.18-.59,.59-.59h7.78Z"/><path d="M21.39,10.67c0,3.37-1.91,4.97-5.08,4.97s-5.08-1.6-5.08-4.97,1.93-4.99,5.08-4.99,5.08,1.6,5.08,4.99Zm-3.29,0c0-1.69-.58-2.34-1.78-2.34s-1.76,.65-1.76,2.34,.56,2.32,1.76,2.32,1.78-.65,1.78-2.32Z"/><path d="M30.76,6.37c.29,.2,.38,.41,.23,.76l-.56,1.35c-.13,.31-.4,.4-.68,.25-.45-.22-1.03-.38-1.67-.38-1.35,0-2.12,.68-2.12,2.32s.77,2.3,2.14,2.3c.65,0,1.22-.16,1.67-.38,.31-.14,.56-.05,.68,.25l.58,1.35c.14,.34,.05,.56-.23,.76-.59,.38-1.8,.68-3.11,.68-3.01,0-5.04-1.6-5.04-4.97s2.02-4.99,5.02-4.99c1.31,0,2.52,.31,3.1,.68Z"/><path d="M41.06,5.95c.43,0,.61,.18,.61,.61V14.78c0,.41-.18,.59-.61,.59h-1.73c-.45,0-.61-.16-.7-.49l-.07-.47h-.05c-.41,.63-1.26,1.15-2.72,1.15-2.38,0-3.37-1.31-3.37-3.82V6.57c0-.43,.18-.61,.61-.61h2c.41,0,.59,.18,.59,.61v4.59c0,1.19,.32,1.69,1.33,1.69,1.1,0,1.51-.68,1.51-1.87V6.57c0-.43,.18-.61,.59-.61h2Z"/><path d="M50.47,6.3c.31,.14,.41,.32,.29,.63l-.4,1.04c-.13,.31-.32,.43-.74,.29-.47-.18-1.1-.36-1.91-.36s-1.28,.13-1.28,.65c0,.59,.72,.76,1.67,1.01,1.76,.5,3.06,1.08,3.06,3.02,0,2.52-2,3.02-4.14,3.02-1.48,0-2.86-.27-3.49-.59-.31-.14-.41-.34-.29-.65l.4-1.04c.13-.31,.32-.43,.76-.27s1.24,.38,2.14,.38,1.46-.13,1.46-.7c0-.61-.7-.76-1.87-1.03-1.35-.31-2.88-.94-2.88-2.99s1.46-2.99,4.09-2.99c1.37,0,2.56,.29,3.13,.58Z"/><path d="M61.96,10.56v.45c0,.43-.2,.61-.61,.61h-5.71c.22,1.21,.92,1.58,2.21,1.58,1.06,0,1.76-.23,2.4-.52,.4-.16,.59-.04,.74,.29l.5,1.22c.14,.32,.02,.5-.29,.67-.76,.4-2.16,.77-3.69,.77-3.28,0-5.17-1.58-5.17-4.97s1.93-4.99,4.99-4.99c2.88,0,4.63,1.67,4.63,4.88Zm-6.36-.72h3.21c-.07-1.22-.52-1.73-1.53-1.73-1.08,0-1.55,.45-1.67,1.73Z"/><path d="M72.63,2.62c.43,0,.61,.18,.61,.59V14.78c0,.41-.18,.59-.61,.59h-1.76c-.45,0-.59-.16-.68-.5l-.04-.25c-.7,.67-1.66,1.03-2.83,1.03-2.45,0-4.14-1.66-4.14-4.97s1.69-4.99,4.14-4.99c1.12,0,2.02,.32,2.7,.92h.02V3.22c0-.41,.18-.59,.59-.59h2Zm-2.59,8.05c0-1.67-.59-2.34-1.78-2.34s-1.76,.67-1.76,2.34,.59,2.32,1.76,2.32,1.78-.67,1.78-2.32Z"/><path d="M84.37,2.62c3.35,0,5.02,1.28,5.02,4.5s-1.66,4.5-5.01,4.5h-2.03v3.15c0,.41-.18,.59-.61,.59h-2.09c-.41,0-.59-.18-.59-.59V3.22c0-.41,.18-.59,.59-.59h4.72Zm-2.02,2.81v3.49h1.57c1.55,0,2.14-.43,2.14-1.75s-.59-1.75-2.14-1.75h-1.57Z"/><path d="M100.24,10.56v.45c0,.43-.2,.61-.61,.61h-5.71c.22,1.21,.92,1.58,2.21,1.58,1.06,0,1.76-.23,2.4-.52,.4-.16,.59-.04,.74,.29l.5,1.22c.14,.32,.02,.5-.29,.67-.76,.4-2.16,.77-3.69,.77-3.28,0-5.17-1.58-5.17-4.97s1.93-4.99,4.99-4.99c2.88,0,4.63,1.67,4.63,4.88Zm-6.36-.72h3.21c-.07-1.22-.52-1.73-1.53-1.73-1.08,0-1.55,.45-1.67,1.73Z"/><path d="M108.2,6.35v1.91c0,.38-.22,.52-.52,.52-.23,0-.4-.04-.68-.04-1.39,0-2,.61-2,1.96v4.07c0,.41-.18,.59-.59,.59h-2c-.43,0-.61-.18-.61-.59V6.57c0-.43,.18-.61,.61-.61h1.73c.45,0,.61,.16,.7,.49l.09,.61h.04c.49-.74,1.42-1.22,2.65-1.22,.41,0,.59,.16,.59,.52Z"/><path d="M116.41,6.3c.31,.14,.41,.32,.29,.63l-.4,1.04c-.13,.31-.32,.43-.74,.29-.47-.18-1.1-.36-1.91-.36s-1.28,.13-1.28,.65c0,.59,.72,.76,1.67,1.01,1.76,.5,3.06,1.08,3.06,3.02,0,2.52-2,3.02-4.14,3.02-1.48,0-2.86-.27-3.49-.59-.31-.14-.41-.34-.29-.65l.4-1.04c.13-.31,.32-.43,.76-.27s1.24,.38,2.14,.38,1.46-.13,1.46-.7c0-.61-.7-.76-1.87-1.03-1.35-.31-2.88-.94-2.88-2.99s1.46-2.99,4.09-2.99c1.37,0,2.56,.29,3.13,.58Z"/><path d="M128.43,10.67c0,3.37-1.91,4.97-5.08,4.97s-5.08-1.6-5.08-4.97,1.93-4.99,5.08-4.99,5.08,1.6,5.08,4.99Zm-3.29,0c0-1.69-.58-2.34-1.78-2.34s-1.76,.65-1.76,2.34,.56,2.32,1.76,2.32,1.78-.65,1.78-2.32Z"/><path d="M139.3,9.65v5.13c0,.41-.18,.59-.61,.59h-2c-.41,0-.59-.18-.59-.59v-4.59c0-1.21-.32-1.71-1.35-1.71-1.1,0-1.53,.7-1.53,1.87v4.43c0,.41-.18,.59-.59,.59h-2c-.43,0-.61-.18-.61-.59V6.57c0-.43,.18-.61,.61-.61h1.73c.45,0,.61,.16,.7,.49l.07,.49h.05c.43-.63,1.31-1.17,2.85-1.17,2.34,0,3.28,1.35,3.28,3.89Z"/><path d="M149.9,9.23v5.55c0,.41-.18,.59-.61,.59h-1.75c-.43,0-.59-.16-.68-.49l-.05-.43h-.07c-.4,.59-1.19,1.13-2.63,1.13-1.93,0-3.31-.86-3.31-2.95,0-2.23,1.42-2.94,4.59-2.94h1.31v-.16c0-1.08-.5-1.37-1.66-1.37-.94,0-1.87,.25-2.47,.49-.41,.14-.63,.04-.74-.29l-.52-1.33c-.13-.31-.02-.5,.29-.65,.83-.4,2.65-.7,3.94-.7,2.95,0,4.36,1.03,4.36,3.55Zm-3.2,2.48v-.18h-1.01c-1.39,0-1.89,.18-1.89,.92s.49,.9,1.22,.9c1.17,0,1.67-.65,1.67-1.64Z"/><path d="M154.39,2.62c.41,0,.59,.18,.59,.59V14.78c0,.41-.18,.59-.59,.59h-2c-.43,0-.61-.18-.61-.59V3.22c0-.41,.18-.59,.61-.59h2Z"/><path d="M169.69,2.62c.41,0,.59,.18,.59,.59v1.75c0,.41-.18,.59-.59,.59h-2.95V14.78c0,.41-.18,.59-.59,.59h-2.09c-.43,0-.61-.18-.61-.59V5.56h-2.95c-.41,0-.59-.18-.59-.59v-1.75c0-.41,.18-.59,.59-.59h9.2Z"/><path d="M177.37,6.35v1.91c0,.38-.22,.52-.52,.52-.23,0-.4-.04-.68-.04-1.39,0-2,.61-2,1.96v4.07c0,.41-.18,.59-.59,.59h-2c-.43,0-.61-.18-.61-.59V6.57c0-.43,.18-.61,.61-.61h1.73c.45,0,.61,.16,.7,.49l.09,.61h.04c.49-.74,1.42-1.22,2.65-1.22,.41,0,.59,.16,.59,.52Z"/><path d="M187.06,9.23v5.55c0,.41-.18,.59-.61,.59h-1.75c-.43,0-.59-.16-.68-.49l-.05-.43h-.07c-.4,.59-1.19,1.13-2.63,1.13-1.93,0-3.31-.86-3.31-2.95,0-2.23,1.42-2.94,4.59-2.94h1.31v-.16c0-1.08-.5-1.37-1.66-1.37-.94,0-1.87,.25-2.47,.49-.41,.14-.63,.04-.74-.29l-.52-1.33c-.13-.31-.02-.5,.29-.65,.83-.4,2.65-.7,3.94-.7,2.95,0,4.36,1.03,4.36,3.55Zm-3.21,2.48v-.18h-1.01c-1.39,0-1.89,.18-1.89,.92s.49,.9,1.22,.9c1.17,0,1.67-.65,1.67-1.64Z"/><path d="M191.54,2.37c.43,0,.61,.18,.61,.59v1.42c0,.43-.18,.61-.61,.61h-2c-.41,0-.59-.18-.59-.61v-1.42c0-.41,.18-.59,.59-.59h2Zm0,3.58c.43,0,.61,.18,.61,.61V14.78c0,.41-.18,.59-.61,.59h-2c-.41,0-.59-.18-.59-.59V6.57c0-.43,.18-.61,.59-.61h2Z"/><path d="M203.4,9.65v5.13c0,.41-.18,.59-.61,.59h-2c-.41,0-.59-.18-.59-.59v-4.59c0-1.21-.32-1.71-1.35-1.71-1.1,0-1.53,.7-1.53,1.87v4.43c0,.41-.18,.59-.59,.59h-2c-.43,0-.61-.18-.61-.59V6.57c0-.43,.18-.61,.61-.61h1.73c.45,0,.61,.16,.7,.49l.07,.49h.05c.43-.63,1.31-1.17,2.84-1.17,2.34,0,3.28,1.35,3.28,3.89Z"/><path d="M207.88,2.37c.43,0,.61,.18,.61,.59v1.42c0,.43-.18,.61-.61,.61h-2c-.41,0-.59-.18-.59-.61v-1.42c0-.41,.18-.59,.59-.59h2Zm0,3.58c.43,0,.61,.18,.61,.61V14.78c0,.41-.18,.59-.61,.59h-2c-.41,0-.59-.18-.59-.59V6.57c0-.43,.18-.61,.59-.61h2Z"/><path d="M219.74,9.65v5.13c0,.41-.18,.59-.61,.59h-2c-.41,0-.59-.18-.59-.59v-4.59c0-1.21-.32-1.71-1.35-1.71-1.1,0-1.53,.7-1.53,1.87v4.43c0,.41-.18,.59-.59,.59h-2c-.43,0-.61-.18-.61-.59V6.57c0-.43,.18-.61,.61-.61h1.73c.45,0,.61,.16,.7,.49l.07,.49h.05c.43-.63,1.31-1.17,2.84-1.17,2.34,0,3.28,1.35,3.28,3.89Z"/><path d="M230.58,5.95c.43,0,.61,.18,.61,.61v7.33c0,2.9-1.73,4.09-5.2,4.09-1.58,0-3.38-.36-4.09-.77-.25-.16-.38-.36-.25-.68l.58-1.28c.13-.31,.38-.41,.74-.25,.61,.27,1.58,.5,2.77,.5,1.42,0,2.23-.34,2.23-1.55v-.38h-.02c-.67,.5-1.57,.79-2.63,.79-2.32,0-4.07-1.39-4.07-4.27s1.75-4.41,4.07-4.41c1.15,0,2.09,.36,2.77,.97h.04l.02-.2c.07-.34,.23-.5,.68-.5h1.75Zm-2.61,4.14c0-1.26-.65-1.85-1.71-1.85s-1.69,.59-1.69,1.85,.65,1.84,1.69,1.84,1.71-.59,1.71-1.84Z"/></svg>