<?xml version="1.0" encoding="UTF-8"?><svg id="a" xmlns="http://www.w3.org/2000/svg" viewBox="0 0 232.14 42.57"><g><path d="M9.49,2.62c.41,0,.59,.18,.59,.59v1.64c0,.43-.18,.61-.59,.61H4.41v2.56h4.77c.41,0,.59,.18,.59,.59v1.53c0,.43-.18,.59-.59,.59H4.41v4.03c0,.41-.18,.59-.61,.59H1.71c-.41,0-.59-.18-.59-.59V3.22c0-.41,.18-.59,.59-.59h7.78Z"/><path d="M21.39,10.67c0,3.37-1.91,4.97-5.08,4.97s-5.08-1.6-5.08-4.97,1.93-4.99,5.08-4.99,5.08,1.6,5.08,4.99Zm-3.29,0c0-1.69-.58-2.34-1.78-2.34s-1.76,.65-1.76,2.34,.56,2.32,1.76,2.32,1.78-.65,1.78-2.32Z"/><path d="M30.76,6.37c.29,.2,.38,.41,.23,.76l-.56,1.35c-.13,.31-.4,.4-.68,.25-.45-.22-1.03-.38-1.67-.38-1.35,0-2.12,.68-2.12,2.32s.77,2.3,2.14,2.3c.65,0,1.22-.16,1.67-.38,.31-.14,.56-.05,.68,.25l.58,1.35c.14,.34,.05,.56-.23,.76-.59,.38-1.8,.68-3.11,.68-3.01,0-5.04-1.6-5.04-4.97s2.02-4.99,5.02-4.99c1.31,0,2.52,.31,3.1,.68Z"/><path d="M41.06,5.95c.43,0,.61,.18,.61,.61V14.78c0,.41-.18,.59-.61,.59h-1.73c-.45,0-.61-.16-.7-.49l-.07-.47h-.05c-.41,.63-1.26,1.15-2.72,1.15-2.38,0-3.37-1.31-3.37-3.82V6.57c0-.43,.18-.61,.61-.61h2c.41,0,.59,.18,.59,.61v4.59c0,1.19,.32,1.69,1.33,1.69,1.1,0,1.51-.68,1.51-1.87V6.57c0-.43,.18-.61,.59-.61h2Z"/><path d="M50.47,6.3c.31,.14,.41,.32,.29,.63l-.4,1.04c-.13,.31-.32,.43-.74,.29-.47-.18-1.1-.36-1.91-.36s-1.28,.13-1.28,.65c0,.59,.72,.76,1.67,1.01,1.76,.5,3.06,1.08,3.06,3.02,0,2.52-2,3.02-4.14,3.02-1.48,0-2.86-.27-3.49-.59-.31-.14-.41-.34-.29-.65l.4-1.04c.13-.31,.32-.43,.76-.27s1.24,.38,2.14,.38,1.46-.13,1.46-.7c0-.61-.7-.76-1.87-1.03-1.35-.31-2.88-.94-2.88-2.99s1.46-2.99,4.09-2.99c1.37,0,2.56,.29,3.13,.58Z"/><path d="M61.96,10.56v.45c0,.43-.2,.61-.61,.61h-5.71c.22,1.21,.92,1.58,2.21,1.58,1.06,0,1.76-.23,2.4-.52,.4-.16,.59-.04,.74,.29l.5,1.22c.14,.32,.02,.5-.29,.67-.76,.4-2.16,.77-3.69,.77-3.28,0-5.17-1.58-5.17-4.97s1.93-4.99,4.99-4.99c2.88,0,4.63,1.67,4.63,4.88Zm-6.36-.72h3.21c-.07-1.22-.52-1.73-1.53-1.73-1.08,0-1.55,.45-1.67,1.73Z"/><path d="M72.63,2.62c.43,0,.61,.18,.61,.59V14.78c0,.41-.18,.59-.61,.59h-1.76c-.45,0-.59-.16-.68-.5l-.04-.25c-.7,.67-1.66,1.03-2.83,1.03-2.45,0-4.14-1.66-4.14-4.97s1.69-4.99,4.14-4.99c1.12,0,2.02,.32,2.7,.92h.02V3.22c0-.41,.18-.59,.59-.59h2Zm-2.59,8.05c0-1.67-.59-2.34-1.78-2.34s-1.76,.67-1.76,2.34,.59,2.32,1.76,2.32,1.78-.67,1.78-2.32Z"/><path d="M84.37,2.62c3.35,0,5.02,1.28,5.02,4.5s-1.66,4.5-5.01,4.5h-2.03v3.15c0,.41-.18,.59-.61,.59h-2.09c-.41,0-.59-.18-.59-.59V3.22c0-.41,.18-.59,.59-.59h4.72Zm-2.02,2.81v3.49h1.57c1.55,0,2.14-.43,2.14-1.75s-.59-1.75-2.14-1.75h-1.57Z"/><path d="M100.24,10.56v.45c0,.43-.2,.61-.61,.61h-5.71c.22,1.21,.92,1.58,2.21,1.58,1.06,0,1.76-.23,2.4-.52,.4-.16,.59-.04,.74,.29l.5,1.22c.14,.32,.02,.5-.29,.67-.76,.4-2.16,.77-3.69,.77-3.28,0-5.17-1.58-5.17-4.97s1.93-4.99,4.99-4.99c2.88,0,4.63,1.67,4.63,4.88Zm-6.36-.72h3.21c-.07-1.22-.52-1.73-1.53-1.73-1.08,0-1.55,.45-1.67,1.73Z"/><path d="M108.2,6.35v1.91c0,.38-.22,.52-.52,.52-.23,0-.4-.04-.68-.04-1.39,0-2,.61-2,1.96v4.07c0,.41-.18,.59-.59,.59h-2c-.43,0-.61-.18-.61-.59V6.57c0-.43,.18-.61,.61-.61h1.73c.45,0,.61,.16,.7,.49l.09,.61h.04c.49-.74,1.42-1.22,2.65-1.22,.41,0,.59,.16,.59,.52Z"/><path d="M116.41,6.3c.31,.14,.41,.32,.29,.63l-.4,1.04c-.13,.31-.32,.43-.74,.29-.47-.18-1.1-.36-1.91-.36s-1.28,.13-1.28,.65c0,.59,.72,.76,1.67,1.01,1.76,.5,3.06,1.08,3.06,3.02,0,2.52-2,3.02-4.14,3.02-1.48,0-2.86-.27-3.49-.59-.31-.14-.41-.34-.29-.65l.4-1.04c.13-.31,.32-.43,.76-.27s1.24,.38,2.14,.38,1.46-.13,1.46-.7c0-.61-.7-.76-1.87-1.03-1.35-.31-2.88-.94-2.88-2.99s1.46-2.99,4.09-2.99c1.37,0,2.56,.29,3.13,.58Z"/><path d="M128.43,10.67c0,3.37-1.91,4.97-5.08,4.97s-5.08-1.6-5.08-4.97,1.93-4.99,5.08-4.99,5.08,1.6,5.08,4.99Zm-3.29,0c0-1.69-.58-2.34-1.78-2.34s-1.76,.65-1.76,2.34,.56,2.32,1.76,2.32,1.78-.65,1.78-2.32Z"/><path d="M139.3,9.65v5.13c0,.41-.18,.59-.61,.59h-2c-.41,0-.59-.18-.59-.59v-4.59c0-1.21-.32-1.71-1.35-1.71-1.1,0-1.53,.7-1.53,1.87v4.43c0,.41-.18,.59-.59,.59h-2c-.43,0-.61-.18-.61-.59V6.57c0-.43,.18-.61,.61-.61h1.73c.45,0,.61,.16,.7,.49l.07,.49h.05c.43-.63,1.31-1.17,2.85-1.17,2.34,0,3.28,1.35,3.28,3.89Z"/><path d="M149.9,9.23v5.55c0,.41-.18,.59-.61,.59h-1.75c-.43,0-.59-.16-.68-.49l-.05-.43h-.07c-.4,.59-1.19,1.13-2.63,1.13-1.93,0-3.31-.86-3.31-2.95,0-2.23,1.42-2.94,4.59-2.94h1.31v-.16c0-1.08-.5-1.37-1.66-1.37-.94,0-1.87,.25-2.47,.49-.41,.14-.63,.04-.74-.29l-.52-1.33c-.13-.31-.02-.5,.29-.65,.83-.4,2.65-.7,3.94-.7,2.95,0,4.36,1.03,4.36,3.55Zm-3.2,2.48v-.18h-1.01c-1.39,0-1.89,.18-1.89,.92s.49,.9,1.22,.9c1.17,0,1.67-.65,1.67-1.64Z"/><path d="M154.39,2.62c.41,0,.59,.18,.59,.59V14.78c0,.41-.18,.59-.59,.59h-2c-.43,0-.61-.18-.61-.59V3.22c0-.41,.18-.59,.61-.59h2Z"/><path d="M169.69,2.62c.41,0,.59,.18,.59,.59v1.75c0,.41-.18,.59-.59,.59h-2.95V14.78c0,.41-.18,.59-.59,.59h-2.09c-.43,0-.61-.18-.61-.59V5.56h-2.95c-.41,0-.59-.18-.59-.59v-1.75c0-.41,.18-.59,.59-.59h9.2Z"/><path d="M177.37,6.35v1.91c0,.38-.22,.52-.52,.52-.23,0-.4-.04-.68-.04-1.39,0-2,.61-2,1.96v4.07c0,.41-.18,.59-.59,.59h-2c-.43,0-.61-.18-.61-.59V6.57c0-.43,.18-.61,.61-.61h1.73c.45,0,.61,.16,.7,.49l.09,.61h.04c.49-.74,1.42-1.22,2.65-1.22,.41,0,.59,.16,.59,.52Z"/><path d="M187.06,9.23v5.55c0,.41-.18,.59-.61,.59h-1.75c-.43,0-.59-.16-.68-.49l-.05-.43h-.07c-.4,.59-1.19,1.13-2.63,1.13-1.93,0-3.31-.86-3.31-2.95,0-2.23,1.42-2.94,4.59-2.94h1.31v-.16c0-1.08-.5-1.37-1.66-1.37-.94,0-1.87,.25-2.47,.49-.41,.14-.63,.04-.74-.29l-.52-1.33c-.13-.31-.02-.5,.29-.65,.83-.4,2.65-.7,3.94-.7,2.95,0,4.36,1.03,4.36,3.55Zm-3.21,2.48v-.18h-1.01c-1.39,0-1.89,.18-1.89,.92s.49,.9,1.22,.9c1.17,0,1.67-.65,1.67-1.64Z"/><path d="M191.54,2.37c.43,0,.61,.18,.61,.59v1.42c0,.43-.18,.61-.61,.61h-2c-.41,0-.59-.18-.59-.61v-1.42c0-.41,.18-.59,.59-.59h2Zm0,3.58c.43,0,.61,.18,.61,.61V14.78c0,.41-.18,.59-.61,.59h-2c-.41,0-.59-.18-.59-.59V6.57c0-.43,.18-.61,.59-.61h2Z"/><path d="M203.4,9.65v5.13c0,.41-.18,.59-.61,.59h-2c-.41,0-.59-.18-.59-.59v-4.59c0-1.21-.32-1.71-1.35-1.71-1.1,0-1.53,.7-1.53,1.87v4.43c0,.41-.18,.59-.59,.59h-2c-.43,0-.61-.18-.61-.59V6.57c0-.43,.18-.61,.61-.61h1.73c.45,0,.61,.16,.7,.49l.07,.49h.05c.43-.63,1.31-1.17,2.84-1.17,2.34,0,3.28,1.35,3.28,3.89Z"/><path d="M207.88,2.37c.43,0,.61,.18,.61,.59v1.42c0,.43-.18,.61-.61,.61h-2c-.41,0-.59-.18-.59-.61v-1.42c0-.41,.18-.59,.59-.59h2Zm0,3.58c.43,0,.61,.18,.61,.61V14.78c0,.41-.18,.59-.61,.59h-2c-.41,0-.59-.18-.59-.59V6.57c0-.43,.18-.61,.59-.61h2Z"/><path d="M219.74,9.65v5.13c0,.41-.18,.59-.61,.59h-2c-.41,0-.59-.18-.59-.59v-4.59c0-1.21-.32-1.71-1.35-1.71-1.1,0-1.53,.7-1.53,1.87v4.43c0,.41-.18,.59-.59,.59h-2c-.43,0-.61-.18-.61-.59V6.57c0-.43,.18-.61,.61-.61h1.73c.45,0,.61,.16,.7,.49l.07,.49h.05c.43-.63,1.31-1.17,2.84-1.17,2.34,0,3.28,1.35,3.28,3.89Z"/><path d="M230.58,5.95c.43,0,.61,.18,.61,.61v7.33c0,2.9-1.73,4.09-5.2,4.09-1.58,0-3.38-.36-4.09-.77-.25-.16-.38-.36-.25-.68l.58-1.28c.13-.31,.38-.41,.74-.25,.61,.27,1.58,.5,2.77,.5,1.42,0,2.23-.34,2.23-1.55v-.38h-.02c-.67,.5-1.57,.79-2.63,.79-2.32,0-4.07-1.39-4.07-4.27s1.75-4.41,4.07-4.41c1.15,0,2.09,.36,2.77,.97h.04l.02-.2c.07-.34,.23-.5,.68-.5h1.75Zm-2.61,4.14c0-1.26-.65-1.85-1.71-1.85s-1.69,.59-1.69,1.85,.65,1.84,1.69,1.84,1.71-.59,1.71-1.84Z"/></g><g><path d="M135.4,34.58c-.17,.01-.35,0-.53-.03-.19-.03-.38-.16-.58-.39l-.09,.23c-.05,.08-.09,.2-.13,.34-.06,.13-.15,.28-.26,.43-.11,.16-.25,.31-.41,.45-.16,.14-.34,.26-.54,.36-.2,.1-.41,.14-.64,.13-.76-.04-1.3-.26-1.62-.68-.32-.42-.49-.99-.49-1.71,0-.83,.2-1.84,.61-3.04,.25-.72,.5-1.38,.76-1.97,.25-.59,.51-1.17,.77-1.73,.26-.56,.55-1.12,.85-1.67,.3-.56,.63-1.15,.99-1.77,.1-.13,.26-.23,.49-.3,.23-.07,.46-.1,.7-.1,.3,0,.54,.05,.72,.15,.18,.1,.21,.27,.09,.5-.4,.6-.75,1.17-1.07,1.72-.32,.55-.62,1.1-.89,1.66-.28,.56-.54,1.13-.78,1.73s-.49,1.25-.73,1.95c-.05,.13-.11,.31-.19,.54s-.16,.48-.23,.76-.14,.56-.2,.86-.08,.57-.08,.82c0,.26,.04,.48,.13,.65s.23,.26,.43,.29c.06,0,.13-.07,.2-.21s.15-.31,.23-.52c.08-.21,.15-.43,.22-.67,.07-.23,.14-.44,.2-.62l.09-.29c-.02-.24-.05-.48-.07-.72s-.04-.49-.04-.74c0-.34,.02-.66,.05-.97,.02-.08,.16-.19,.4-.32s.5-.24,.79-.34c.29-.1,.55-.17,.79-.22s.38-.02,.41,.06c-.02,.11-.07,.31-.13,.6-.07,.29-.13,.62-.19,.97-.06,.35-.11,.71-.15,1.05-.04,.35-.05,.63-.03,.85,.01,.14,.05,.26,.13,.35,.07,.09,.16,.14,.27,.14,.1,0,.2-.04,.32-.12s.24-.22,.37-.42l-.04,.11,.09-.2v.02c.05-.08,.14-.13,.29-.15,.14-.02,.29,0,.42,.03s.24,.1,.31,.19c.07,.09,.06,.2-.03,.33l.02-.02c-.12,.19-.26,.38-.41,.58-.16,.19-.32,.37-.5,.52-.18,.16-.36,.29-.54,.39-.18,.1-.35,.16-.52,.17Z"/><path d="M140.46,30.05c.04-.1,.16-.18,.37-.26s.43-.13,.67-.15,.46-.02,.67,0,.31,.08,.31,.18c-.18,1.02-.42,2.07-.73,3.16-.31,1.09-.7,2.18-1.18,3.29,.42-.53,.84-1.08,1.27-1.66s.83-1.15,1.21-1.71c.06-.08,.16-.13,.3-.14,.14-.01,.27,0,.4,.04,.13,.04,.23,.09,.32,.17,.08,.08,.1,.17,.05,.26-.3,.5-.67,1.06-1.11,1.66-.44,.6-.9,1.21-1.38,1.82-.48,.61-.95,1.2-1.42,1.77-.47,.57-.88,1.06-1.24,1.48l-1.53,1.4c-.11,.11-.23,.18-.35,.21s-.24,.03-.33,0c-.1-.02-.17-.07-.21-.14s-.03-.16,.03-.25c.62-1.1,1.13-2.11,1.53-3.01,.4-.9,.73-1.76,1.01-2.57-.49,.36-.97,.54-1.44,.54-.34,0-.61-.04-.83-.12-.22-.08-.39-.19-.52-.33-.13-.14-.22-.31-.28-.51-.05-.2-.08-.42-.08-.66s.02-.51,.07-.76,.1-.51,.16-.77c.05-.2,.12-.42,.21-.66,.09-.23,.18-.46,.27-.68,.09-.22,.18-.42,.27-.6,.09-.19,.17-.34,.22-.46,.07-.12,.22-.2,.44-.25,.22-.05,.45-.06,.68-.04,.23,.02,.43,.06,.6,.13,.17,.07,.23,.17,.2,.29l-.2,.45c-.11,.25-.24,.55-.39,.91-.15,.35-.29,.74-.42,1.16-.07,.23-.13,.44-.18,.64-.05,.2-.07,.38-.07,.55,0,.22,.08,.32,.23,.32s.32-.06,.49-.19,.37-.33,.61-.62c.17-.18,.32-.39,.46-.64s.25-.5,.33-.76c.08-.29,.15-.58,.19-.86s.09-.58,.15-.86c.02-.13,.05-.25,.07-.37,.02-.11,.05-.24,.07-.37l.02-.02Z"/><path d="M157.93,22.56c.11-.16,.25-.24,.41-.25,.17-.01,.34,.02,.51,.09,.17,.07,.34,.17,.5,.29,.16,.12,.27,.23,.34,.34v.22l-.27,1.31c-.31,1.45-.61,2.95-.89,4.5s-.43,3.07-.44,4.55c.58-.88,1.1-1.83,1.57-2.86,.47-1.03,.9-2.08,1.29-3.15,.38-1.07,.73-2.13,1.04-3.2,.31-1.06,.59-2.07,.85-3.01,.06-.08,.2-.11,.43-.09s.47,.08,.72,.15,.48,.17,.68,.29c.2,.11,.3,.21,.3,.3-.41,1.32-.76,2.53-1.04,3.64-.29,1.1-.53,2.11-.71,3.02-.19,.91-.32,1.74-.41,2.48s-.13,1.39-.13,1.97c0,1.02,.16,1.85,.47,2.48,.31,.64,.76,1.15,1.33,1.55-.24,.1-.42,.16-.55,.2s-.22,.06-.28,.08c-.06,.02-.1,.02-.12,.02-.02,0-.04,0-.08,0h-.14c-.32,.01-.63-.06-.93-.21-.29-.15-.55-.39-.77-.71s-.4-.74-.53-1.26c-.13-.52-.2-1.14-.2-1.87,0-.23,0-.47,.03-.72,.02-.25,.04-.51,.06-.77,.01-.24,.01-.38,0-.41-.01-.04-.02-.05-.03-.05s0-.02,0-.07,.05-.2,.11-.45c-.5,1.02-1,1.94-1.49,2.77-.49,.83-.94,1.46-1.35,1.91v.05c-.11,.14-.28,.28-.51,.4-.23,.13-.47,.23-.71,.3-.24,.07-.46,.11-.65,.11s-.3-.05-.32-.16c-.06-.35-.11-.71-.13-1.09-.03-.38-.04-.76-.04-1.16s.01-.77,.04-1.16c.02-.39,.06-.79,.11-1.21-.48,.9-1,1.76-1.55,2.58-.55,.82-1.14,1.54-1.77,2.17-.63,.62-1.3,1.12-2,1.49-.7,.37-1.45,.55-2.24,.55-.18,0-.38-.04-.59-.13-.22-.09-.4-.23-.57-.41s-.27-.4-.32-.65c-.05-.25,.01-.54,.18-.86,.26,.17,.54,.31,.84,.44,.29,.13,.54,.19,.75,.19,.74,0,1.45-.24,2.11-.72,.67-.48,1.29-1.1,1.87-1.87,.58-.77,1.12-1.64,1.62-2.61s.95-1.95,1.36-2.94c.41-.99,.76-1.94,1.07-2.84,.31-.91,.57-1.68,.78-2.33v.02c.06-.18,.12-.35,.17-.51,.05-.16,.11-.33,.17-.51v-.02l.05-.14Z"/><path d="M164.94,30.39c.05-.07,.18-.12,.39-.14,.21-.02,.43-.02,.66,0,.23,.02,.43,.07,.6,.13,.17,.06,.24,.13,.21,.2-.07,.21-.15,.41-.23,.6s-.16,.4-.24,.6c-.1,.25-.19,.5-.29,.75-.1,.25-.18,.49-.25,.73-.12,.36-.22,.69-.29,.98-.07,.29-.08,.47-.04,.51,.18-.02,.51-.29,.99-.81,.14-.13,.28-.28,.4-.44s.23-.33,.34-.5c-.02,.02-.02,0,.02-.05,.04-.06,.08-.13,.13-.2,.06-.07,.15-.11,.28-.11s.25,.03,.36,.08,.21,.13,.28,.22,.08,.18,.04,.28c-.02,.02-.04,.06-.06,.1-.02,.04-.04,.08-.06,.1h.02c-.1,.17-.22,.35-.36,.54-.14,.19-.29,.37-.43,.54-.41,.48-.81,.87-1.21,1.17-.4,.3-.76,.46-1.07,.47-.54,.01-.92-.14-1.13-.45-.22-.31-.32-.71-.32-1.19,0-.24,.02-.49,.07-.76,.05-.26,.1-.52,.16-.76,.05-.18,.11-.38,.2-.59,.08-.22,.17-.43,.26-.64s.18-.41,.27-.61c.09-.2,.17-.37,.23-.51v.02l.09-.2,.02-.05Zm.59-2.68c.11-.3,.3-.54,.57-.73,.27-.19,.54-.27,.82-.24,.31,.02,.55,.16,.7,.41,.16,.25,.16,.53,.02,.85v-.02c-.11,.29-.3,.53-.57,.72-.27,.19-.55,.28-.84,.25-.35-.02-.59-.16-.72-.41s-.13-.53,.02-.86v.02Z"/><path d="M170.79,33.02c-.07,.1-.18,.14-.31,.13-.14,0-.27-.04-.39-.1-.12-.06-.21-.14-.27-.23-.06-.1-.05-.19,.02-.27,.16-.2,.29-.42,.41-.66,.12-.23,.23-.47,.32-.71,.01-.04,.04-.1,.08-.18s.08-.17,.12-.26c.04-.09,.06-.17,.08-.23,.02-.07,.01-.1,0-.1-.18,.01-.36,.11-.55,.3-.19,.18-.36,.41-.53,.66-.17,.26-.32,.52-.45,.79-.13,.27-.23,.49-.31,.67-.05,.14-.09,.3-.12,.46-.03,.16-.04,.32-.04,.47,0,.29,.06,.54,.18,.77s.32,.34,.61,.34c.22,0,.43-.06,.65-.19s.43-.29,.65-.49c.22-.2,.42-.42,.62-.67,.2-.25,.38-.51,.55-.77,.05-.08,.14-.13,.27-.13s.26,.02,.39,.07c.13,.05,.22,.11,.3,.2,.07,.08,.08,.17,.04,.25-.22,.35-.47,.7-.75,1.06-.28,.36-.58,.69-.91,.98-.32,.29-.67,.53-1.04,.72-.37,.19-.74,.28-1.12,.28-.76,.01-1.31-.17-1.67-.55-.35-.38-.53-.89-.53-1.54,0-.25,.03-.53,.09-.85,.06-.31,.15-.62,.27-.92,.13-.35,.31-.72,.55-1.11,.23-.39,.51-.75,.82-1.07,.31-.32,.66-.59,1.04-.81s.78-.32,1.2-.32c.38,0,.65,.11,.8,.33,.15,.22,.22,.49,.22,.8,0,.23-.03,.45-.09,.68-.06,.22-.12,.4-.18,.55-.13,.28-.28,.55-.45,.84-.17,.28-.35,.55-.56,.8Z"/><path d="M172.66,36.19s-.05,.03-.1,.04c-.05,.02-.09,.03-.12,.03-.13,.01-.28,0-.43-.04s-.31-.09-.45-.16c-.14-.07-.26-.16-.35-.25s-.13-.19-.12-.29c.18-.49,.39-1.06,.62-1.71,.23-.65,.49-1.33,.76-2.06,.27-.73,.55-1.47,.84-2.23,.29-.76,.57-1.5,.86-2.22,.28-.72,.56-1.4,.83-2.05,.27-.65,.52-1.22,.75-1.73,.07-.11,.22-.18,.45-.22,.23-.04,.46-.05,.68-.03,.23,.02,.42,.08,.58,.15s.21,.17,.15,.28l.02-.02c-.04,.1-.08,.19-.12,.28s-.08,.18-.12,.28l-2.11,5.13,.32-.18c.18-.1,.39-.17,.63-.23,.24-.06,.44-.09,.61-.09,.16,0,.29,.04,.39,.13,.1,.08,.11,.21,.03,.38l.04-.07-.18,.77c-.07,.31-.16,.67-.26,1.07-.1,.4-.19,.81-.28,1.23s-.16,.83-.22,1.21c-.06,.39-.09,.72-.09,.98,0,.14,0,.26,0,.35,0,.09,.02,.14,.04,.15,.12-.01,.28-.1,.49-.27s.41-.37,.63-.6c.22-.23,.42-.48,.6-.73,.19-.25,.32-.47,.41-.65,.05-.08,.14-.13,.27-.13,.13,0,.26,.02,.39,.07s.23,.13,.31,.22,.09,.18,.03,.28v-.02c-.14,.28-.35,.61-.62,.99-.27,.38-.57,.75-.91,1.1-.34,.35-.69,.65-1.06,.9s-.73,.38-1.08,.38c-.26,.01-.48-.03-.66-.13-.17-.1-.32-.23-.42-.41-.11-.17-.19-.38-.23-.63-.05-.25-.07-.51-.07-.8,0-.22,.01-.45,.04-.7,.02-.25,.05-.5,.09-.76-.31,.49-.62,.98-.92,1.48-.3,.49-.6,.98-.9,1.48l-.04,.05Z"/><path d="M182.52,29.02c.32,.02,.57,.14,.75,.35,.17,.21,.3,.46,.37,.75,.28-.01,.52,.03,.73,.13s.29,.24,.22,.42c-.02,.06-.05,.14-.09,.24s-.07,.18-.09,.24c-.16,.38-.3,.75-.44,1.09-.14,.34-.25,.67-.33,.98-.11,.36-.19,.69-.26,.98s-.09,.47-.06,.53c.06-.01,.18-.09,.36-.23,.18-.14,.4-.34,.65-.59,.18-.17,.34-.36,.5-.58,.15-.22,.28-.43,.39-.63,.12-.16,.26-.25,.43-.3s.32-.04,.44,0,.21,.14,.25,.28c.04,.14,0,.3-.12,.49-.16,.19-.28,.35-.36,.49-.1,.13-.2,.27-.3,.42-.1,.15-.2,.28-.3,.39-.42,.46-.83,.84-1.24,1.15-.41,.31-.77,.47-1.08,.49-.41,.01-.72-.07-.93-.25s-.36-.41-.44-.7c-.22,.26-.47,.49-.77,.67-.3,.19-.62,.29-.97,.3-.6,.02-1.01-.14-1.24-.5-.23-.36-.34-.81-.34-1.35,0-.41,.05-.82,.14-1.24,.14-.54,.36-1.06,.66-1.55s.63-.92,1.01-1.3,.78-.67,1.21-.88c.43-.22,.85-.32,1.26-.31Zm-2.36,5.72c.31-.01,.61-.21,.9-.6,.29-.39,.55-.85,.77-1.39v.02c.07-.22,.15-.44,.24-.68s.17-.47,.24-.7c.1-.23,.14-.45,.14-.67,0-.07-.01-.13-.04-.19-.03-.05-.09-.09-.19-.1-.17-.01-.35,.06-.55,.21-.2,.15-.39,.35-.58,.6-.19,.25-.36,.54-.51,.87-.16,.33-.27,.67-.34,1.02-.01,.04-.03,.1-.05,.2-.02,.1-.05,.2-.08,.32-.03,.12-.06,.25-.08,.38-.02,.13-.04,.25-.04,.34,0,.11,.01,.2,.04,.27s.07,.11,.13,.11Z"/><path d="M187.47,34.87c.22,0,.43-.06,.65-.19s.43-.29,.65-.49c.22-.2,.42-.42,.62-.67,.2-.25,.38-.51,.55-.77,.05-.08,.14-.13,.27-.13s.26,.02,.39,.07c.13,.05,.22,.11,.3,.2,.07,.08,.08,.17,.04,.25-.22,.35-.47,.7-.75,1.06-.28,.36-.58,.69-.91,.98-.32,.29-.67,.53-1.04,.72-.37,.19-.74,.28-1.12,.28-.76,.01-1.31-.17-1.67-.55-.35-.38-.53-.89-.53-1.54,0-.25,.03-.53,.09-.85,.06-.31,.15-.62,.27-.92,.13-.35,.31-.72,.55-1.11,.23-.39,.51-.75,.82-1.07,.31-.32,.66-.59,1.04-.81s.78-.32,1.2-.32c.38,0,.65,.11,.8,.33,.15,.22,.22,.49,.22,.8,0,.23-.03,.45-.09,.67-.06,.22-.12,.4-.18,.55-.29,.61-.65,1.17-1.08,1.69-.43,.51-1,1-1.71,1.47,.12,.23,.33,.34,.63,.34Zm-.63-2.05c-.02,.08-.05,.18-.08,.3-.03,.11-.05,.22-.06,.31,.41-.32,.74-.66,1.01-1s.5-.76,.7-1.27c.01-.04,.04-.1,.08-.18,.04-.08,.08-.17,.12-.25s.06-.16,.08-.22c.02-.07,.01-.1,0-.1-.19,.01-.38,.11-.58,.31-.19,.19-.37,.42-.54,.68-.17,.26-.32,.53-.44,.8-.13,.27-.22,.48-.28,.64v-.02Z"/><path d="M192.2,34.8c.17,0,.35-.06,.55-.17s.4-.27,.6-.46c.2-.19,.41-.41,.62-.66,.21-.25,.42-.5,.62-.76,.06-.08,.16-.13,.29-.13s.25,.03,.37,.08c.11,.05,.2,.13,.27,.22,.07,.09,.07,.18,0,.26-.24,.35-.5,.7-.79,1.04-.29,.35-.59,.66-.92,.94-.32,.28-.67,.5-1.04,.67s-.76,.26-1.17,.26c-.6-.05-1.03-.3-1.29-.75s-.39-1.03-.39-1.74c0-.61,.09-1.3,.28-2.05,.19-.76,.44-1.52,.75-2.3,.31-.78,.67-1.54,1.09-2.29s.84-1.42,1.29-2.02c.44-.59,.89-1.08,1.35-1.46,.46-.38,.89-.59,1.3-.64,.37,.02,.64,.15,.82,.38,.17,.23,.26,.52,.26,.86,0,.22-.03,.45-.08,.7-.05,.25-.12,.5-.19,.75s-.15,.48-.23,.71c-.08,.23-.16,.42-.22,.58-.35,.83-.72,1.59-1.12,2.28-.4,.69-.81,1.31-1.21,1.86s-.8,1.04-1.17,1.46-.7,.78-.97,1.08l-.11,.13c-.04,.38-.02,.68,.04,.9,.06,.22,.18,.31,.36,.27h.05Zm2.88-8.03c.04-.06,.11-.22,.21-.47s.2-.52,.3-.79c.1-.28,.17-.52,.22-.75,.05-.22,.03-.34-.05-.35-.19,.02-.4,.14-.61,.36-.22,.22-.44,.51-.67,.87-.23,.37-.46,.79-.69,1.26-.23,.47-.45,.97-.66,1.5-.21,.53-.4,1.07-.58,1.62-.17,.55-.32,1.09-.44,1.6,.42-.49,.88-1.12,1.39-1.87s1.04-1.75,1.6-2.99Z"/><path d="M201.91,29.99s.05,0,.08,0,.06,0,.08,0l.27,.02c.24-.77,.47-1.5,.68-2.19,.21-.69,.4-1.36,.58-1.99l.45-1.56c-.59,.16-1.13,.34-1.64,.54-.5,.2-.94,.42-1.3,.65-.22,.07-.39,.08-.52,.03-.13-.05-.22-.14-.25-.27-.04-.13-.01-.27,.07-.43,.08-.16,.25-.32,.49-.48l-.02,.02c.35-.25,.8-.49,1.35-.7,.55-.22,1.15-.4,1.81-.56,.65-.16,1.33-.28,2.04-.37s1.4-.13,2.09-.13c.77-.01,1.5,.04,2.21,.16,.7,.12,1.32,.31,1.85,.56,.53,.25,.95,.57,1.27,.96,.32,.39,.48,.85,.48,1.39,0,.23-.05,.51-.14,.86-.19,.55-.49,1.04-.9,1.48-.41,.44-.88,.82-1.42,1.16-.54,.33-1.13,.62-1.76,.86-.64,.24-1.28,.44-1.93,.59-.65,.16-1.29,.28-1.92,.36s-1.2,.13-1.72,.14l-.61,1.76c-.28,.78-.53,1.51-.77,2.21-.23,.69-.43,1.29-.58,1.79-.04,.07-.14,.14-.32,.2-.18,.06-.38,.11-.61,.14-.23,.04-.45,.06-.67,.07-.22,.01-.39,0-.51-.04,.11-.34,.24-.74,.39-1.2,.15-.46,.31-.96,.48-1.49s.34-1.1,.53-1.69c.19-.59,.37-1.2,.55-1.81l-.45-.07h.02c-.2-.01-.33-.07-.37-.18s-.04-.22,.02-.34c.05-.12,.14-.23,.27-.32,.13-.1,.25-.14,.39-.14Zm6.17-6.23c-.66-.01-1.32,.02-1.98,.11,.2,.07,.32,.19,.34,.34-.23,.76-.5,1.62-.82,2.6-.32,.98-.67,2.05-1.05,3.21,.67-.05,1.38-.16,2.12-.33,.74-.17,1.44-.41,2.1-.71,.66-.3,1.25-.66,1.76-1.07,.52-.41,.89-.88,1.12-1.41,.07-.23,.11-.45,.11-.67,0-.38-.13-.71-.38-.97-.25-.26-.56-.47-.94-.63-.37-.16-.77-.27-1.21-.34-.43-.07-.82-.11-1.17-.13Z"/><path d="M212.4,31.22s.05-.08,.11-.18c.06-.1,.15-.2,.27-.31,.12-.11,.26-.2,.43-.29,.17-.08,.37-.14,.59-.16,.18-.36,.41-.66,.7-.91s.61-.38,.95-.41c.48,0,.85,.17,1.1,.5s.38,.78,.38,1.33-.13,1.2-.4,1.87c-.1,.23-.2,.45-.31,.66-.11,.21-.23,.41-.36,.6h.02c.41-.01,.93-.45,1.57-1.31v.02s0-.02,0-.02,0-.01,0-.04l.02-.02-.02,.02s.02,0,.02-.02c.02-.05,.04-.08,.05-.09,.01-.01,.02-.02,.02-.04,.07-.11,.18-.19,.32-.25,.14-.06,.27-.07,.39-.04,.12,.03,.21,.11,.26,.24,.05,.13,.03,.34-.06,.61-.16,.28-.34,.54-.56,.79-.22,.25-.45,.48-.69,.67s-.5,.36-.76,.49c-.26,.13-.52,.19-.77,.21-.14,.02-.28,.03-.41,0-.13-.02-.25-.04-.34-.06-.36,.34-.72,.6-1.09,.8-.37,.2-.72,.3-1.07,.3-.47,0-.83-.17-1.07-.5-.25-.33-.37-.77-.37-1.31,0-.6,.14-1.24,.43-1.93v.04c.07-.25,.17-.48,.29-.69,.12-.21,.25-.42,.38-.62l-.02,.02Zm.79,3.56c.18,0,.41-.13,.7-.4-.16-.2-.28-.42-.36-.66-.08-.23-.14-.49-.18-.76-.1,.28-.17,.54-.23,.78-.06,.25-.09,.45-.09,.62,0,.28,.05,.41,.16,.41Zm2-2.32c.16-.37,.26-.69,.32-.95,.06-.26,.09-.47,.09-.64,0-.19-.02-.32-.05-.39-.04-.07-.07-.1-.11-.12-.07,.04-.14,.12-.22,.24-.07,.13-.13,.28-.19,.47-.05,.19-.1,.39-.13,.61-.03,.22-.04,.45-.04,.68s.02,.45,.05,.67c.07-.12,.16-.31,.27-.58Z"/><path d="M219.33,36.19c-.72-.02-1.29-.22-1.7-.59s-.63-.91-.66-1.62c-.05-.05-.08-.1-.11-.15-.02-.05-.02-.13,0-.24,.08-.16,.16-.32,.22-.49,.07-.17,.14-.33,.23-.49,.08-.16,.19-.3,.31-.43s.29-.23,.5-.31c.2-.28,.39-.54,.57-.79,.17-.25,.32-.47,.44-.67,0-.25,.04-.47,.13-.67,.08-.19,.22-.36,.41-.5,.19-.14,.45-.24,.77-.3,.32-.06,.72-.08,1.21-.07-.18,.36-.3,.67-.37,.92-.07,.25-.1,.48-.1,.68,0,.35,.04,.69,.13,1.03s.19,.65,.31,.95c.13,.35,.24,.67,.32,.98,.08,.31,.08,.6,0,.87v.02s-.02,.03-.02,.05c-.01,.05-.01,.07,0,.07s.01,0,.03-.03c.01-.02,.03-.05,.05-.1,.25-.22,.51-.46,.76-.75,.26-.28,.5-.56,.73-.84,.06-.07,.16-.11,.29-.1,.13,0,.25,.03,.37,.08,.11,.05,.21,.11,.28,.19,.07,.08,.08,.16,.02,.24-.68,1-1.42,1.75-2.2,2.28-.78,.52-1.55,.78-2.3,.78h-.32c-.1,0-.2-.01-.3-.04Zm-.18-4c-.2,.26-.39,.52-.56,.77s-.36,.52-.58,.79c-.02,.17,0,.32,.05,.47,.06,.14,.14,.27,.25,.37,.11,.1,.23,.18,.38,.23,.14,.05,.29,.08,.43,.08,.18-.01,.33-.1,.45-.26s.17-.38,.16-.64c.01-.12,0-.28-.04-.47-.04-.19-.08-.4-.14-.61-.07-.3-.14-.63-.2-.99l-.22,.25Zm2.77,2.2c.05-.07,.07-.09,.07-.05l-.07,.05Z"/><path d="M231.27,25.96c.18,.01,.3,.07,.37,.16,.07,.1,.08,.2,.04,.31-.04,.11-.11,.23-.22,.35s-.26,.2-.44,.25c-.08-.01-.17-.02-.26-.02h-.28c-.43,0-.91,.02-1.44,.06s-1.07,.1-1.64,.17c-.42,1.02-.81,2.01-1.17,2.96-.36,.95-.7,1.96-1.03,3.03-.12,.36-.22,.69-.29,.98-.07,.29-.08,.47-.04,.51,.07-.01,.2-.09,.38-.23,.18-.14,.4-.34,.67-.59h-.02c.17-.17,.32-.35,.45-.56,.13-.2,.26-.4,.38-.59,.12-.16,.26-.25,.42-.3s.31-.04,.43,0,.21,.13,.26,.26c.05,.13,.01,.29-.11,.49v-.02l-.13,.2c-.13,.2-.27,.42-.42,.64-.15,.22-.27,.38-.37,.48v-.02c-.42,.49-.83,.88-1.23,1.18s-.76,.45-1.07,.46c-.53,.01-.9-.14-1.12-.45-.22-.31-.32-.7-.32-1.17,0-.23,.02-.47,.07-.73,.05-.26,.11-.53,.2-.8,.3-1.03,.61-1.94,.92-2.74,.31-.79,.63-1.58,.95-2.36l.14-.32h-.07c-.25,.04-.44,.01-.56-.07-.12-.08-.18-.19-.18-.32s.05-.25,.16-.38c.11-.13,.26-.22,.47-.28l.67-.14,.92-2.27c.1-.13,.26-.23,.49-.3,.23-.07,.46-.1,.68-.1,.26,0,.47,.05,.63,.15,.16,.1,.19,.25,.09,.46l.02-.02c-.08,.19-.16,.36-.22,.5-.07,.14-.13,.28-.18,.41-.05,.13-.11,.25-.16,.39-.05,.13-.12,.29-.19,.47,.42-.05,.83-.09,1.23-.12,.4-.03,.78-.04,1.14-.04s.7,.02,.97,.05Z"/></g></svg>