<svg id="Layer_1" data-name="Layer 1" xmlns="http://www.w3.org/2000/svg" viewBox="0 0 227.85 21.54"><defs><style>.cls-1{isolation:isolate;}</style></defs><g class="cls-1"><g class="cls-1"><path d="M9.69,16.14,5,8.34v12a.77.77,0,0,1-.87.87H.87A.77.77,0,0,1,0,20.31V.87A.77.77,0,0,1,.87,0H4A1.13,1.13,0,0,1,5,.51l5.37,9,5.37-9a1,1,0,0,1,1-.51h3.15a.78.78,0,0,1,.9.87V20.31a.78.78,0,0,1-.9.87H16.68a.76.76,0,0,1-.84-.87v-12l-4.74,7.8a.8.8,0,0,1-.69.42A.82.82,0,0,1,9.69,16.14Z"/><path d="M29.58,2.76q0,.84-.81.84H25.44q-.81,0-.81-.84V.87a.72.72,0,0,1,.81-.81h3.33a.72.72,0,0,1,.81.81Zm0,17.58q0,.84-.81.84H25.47q-.81,0-.81-.84V6a.72.72,0,0,1,.81-.81h3.27a.72.72,0,0,1,.81.81Z"/><path d="M34.78,7a8.31,8.31,0,0,1,6-2.13,9.08,9.08,0,0,1,4.8,1.08.83.83,0,0,1,.45,1.11L45.21,9q-.3.72-1.2.39a6.78,6.78,0,0,0-2.64-.54q-3.81,0-3.81,4.35a4.7,4.7,0,0,0,1,3.3,3.65,3.65,0,0,0,2.81,1.08,5.92,5.92,0,0,0,2.79-.63.78.78,0,0,1,1.17.42l.84,1.89a.88.88,0,0,1-.45,1.14,7.11,7.11,0,0,1-2.09.81,11.23,11.23,0,0,1-2.71.33,8.5,8.5,0,0,1-6.11-2.13q-2.23-2.13-2.23-6.21A8.2,8.2,0,0,1,34.78,7Z"/><path d="M64,20.34a.74.74,0,0,1-.84.84H59.91q-.81,0-.81-.84V11.76a3.4,3.4,0,0,0-.56-2.12,2.2,2.2,0,0,0-1.84-.7,2.64,2.64,0,0,0-2.16.87,3.51,3.51,0,0,0-.72,2.31v8.25q0,.81-.84.81H49.74q-.81,0-.81-.84V.81A.72.72,0,0,1,49.74,0H53q.84,0,.84.81v6.3q1.41-2.25,4.8-2.25,5.37,0,5.37,6Z"/><path d="M81.54,20.34q0,.84-.81.84H78a.75.75,0,0,1-.84-.66L77,19.2q-1.62,2.22-5.28,2.22A5.5,5.5,0,0,1,68,20.22a4.34,4.34,0,0,1-1.39-3.48,4.92,4.92,0,0,1,.49-2.28,4.17,4.17,0,0,1,1.31-1.53,6.39,6.39,0,0,1,2.19-.9,20.29,20.29,0,0,1,2.77-.47c.93-.09,2.08-.14,3.44-.16v-.57q0-2.25-3.09-2.25a12.34,12.34,0,0,0-4.32.84q-.78.33-1-.51l-.6-1.86a.75.75,0,0,1,.48-1,15.41,15.41,0,0,1,6.18-1.17q7.11,0,7.11,5.7ZM76.8,14a13.93,13.93,0,0,0-4.23.55,1.84,1.84,0,0,0-1.32,1.85,1.68,1.68,0,0,0,.6,1.35,2.47,2.47,0,0,0,1.65.51A3.35,3.35,0,0,0,76,17.44a2.93,2.93,0,0,0,.83-2.17Z"/><path d="M97.5,17.19q.78-.36,1.08.51l.54,1.59a.79.79,0,0,1-.51,1,12,12,0,0,1-5.46,1.23,9,9,0,0,1-6.47-2.18,8.07,8.07,0,0,1-2.29-6.16A8.46,8.46,0,0,1,86.52,7a7.73,7.73,0,0,1,5.79-2.17A7.22,7.22,0,0,1,97.83,7a7.84,7.84,0,0,1,2,5.61V14q0,.81-.84.81H89.22a3.65,3.65,0,0,0,1.39,2.38,4.77,4.77,0,0,0,3,.86A9,9,0,0,0,97.5,17.19Zm-8.43-5.13h6.39v-.21a4,4,0,0,0-.78-2.61,2.81,2.81,0,0,0-2.28-.93Q89.37,8.31,89.07,12.06Z"/><path d="M107.67,20.34a.74.74,0,0,1-.84.84h-3.24q-.81,0-.81-.84V.81a.72.72,0,0,1,.81-.81h3.24q.84,0,.84.81Z"/><path d="M121,21.18a.77.77,0,0,1-.87-.87V.87A.77.77,0,0,1,121,0h6.93q4.5,0,6.72,1.78t2.22,5.84q0,4.05-2.21,5.83t-6.73,1.79h-2.7v5.07a.77.77,0,0,1-.87.87Zm6.87-10.26a4.59,4.59,0,0,0,2.94-.75,3.16,3.16,0,0,0,.9-2.55,3.11,3.11,0,0,0-.9-2.52,4.59,4.59,0,0,0-2.94-.75h-2.64v6.57Z"/><path d="M141.4,19.38a8.33,8.33,0,0,1-2.14-6.18q0-4.08,2.14-6.21a9.25,9.25,0,0,1,11.81,0q2.16,2.13,2.16,6.21a8.3,8.3,0,0,1-2.16,6.18,9.25,9.25,0,0,1-11.81,0Zm9-6.18q0-4.56-3.09-4.56t-3.06,4.56q0,4.53,3.06,4.53T150.39,13.2Z"/></g><g class="cls-1"><path d="M163.29,21.51a14.76,14.76,0,0,1-5.28-.87.75.75,0,0,1-.54-1l.51-1.74q.18-.78,1-.51a11.22,11.22,0,0,0,3.45.57q2.82,0,2.82-1.35a1.17,1.17,0,0,0-.65-1.05,10.86,10.86,0,0,0-2.14-.87,13.11,13.11,0,0,1-3.33-1.5,4.27,4.27,0,0,1-1.65-3.66A4,4,0,0,1,159.17,6a8,8,0,0,1,4.69-1.17,12.86,12.86,0,0,1,4.95.81.77.77,0,0,1,.54,1l-.51,1.68a.72.72,0,0,1-1,.54,10.84,10.84,0,0,0-3.21-.51q-2.31,0-2.31,1.29a1.2,1.2,0,0,0,.64,1.05,14.06,14.06,0,0,0,2.21,1c.82.3,1.46.56,1.93.78a8.18,8.18,0,0,1,1.49.91,3.5,3.5,0,0,1,1.14,1.41,4.92,4.92,0,0,1,.36,2Q170.07,21.51,163.29,21.51Z"/></g><g class="cls-1"><path d="M178.17,9.27v6.57a2.2,2.2,0,0,0,.37,1.48,1.94,1.94,0,0,0,1.43.41,3.29,3.29,0,0,0,.61-.08,3.15,3.15,0,0,1,.59-.07q.66,0,.69.75l.12,2a.71.71,0,0,1-.18.55,1.5,1.5,0,0,1-.57.29,10.56,10.56,0,0,1-2.67.3,5.66,5.66,0,0,1-4-1.16,5.19,5.19,0,0,1-1.23-3.91V9.27H172q-.84,0-.84-.81v-2a.74.74,0,0,1,.84-.84h1.44V2q0-.72.84-.72h3q.84,0,.84.72V5.67h3q.81,0,.81.84v2a.72.72,0,0,1-.81.81Z"/><path d="M194.16,21.18a.77.77,0,0,1-.87-.87V.87a.77.77,0,0,1,.87-.87h6.93q4.5,0,6.72,1.78T210,7.62q0,4.05-2.21,5.83t-6.73,1.79h-2.7v5.07a.77.77,0,0,1-.87.87ZM201,10.92a4.59,4.59,0,0,0,2.94-.75,3.16,3.16,0,0,0,.9-2.55A3.11,3.11,0,0,0,204,5.1,4.59,4.59,0,0,0,201,4.35h-2.64v6.57Z"/><path d="M212.07.87a.77.77,0,0,1,.87-.87h14a.78.78,0,0,1,.9.87V3.69a.8.8,0,0,1-.9.9h-4.41V20.31a.78.78,0,0,1-.9.87h-3.36a.78.78,0,0,1-.9-.87V4.59h-4.44a.78.78,0,0,1-.87-.9Z"/></g></g></svg>