<svg xmlns="http://www.w3.org/2000/svg" viewBox="0 0 310.5 45.84"><g id="Layer_2" data-name="Layer 2"><g id="Layer_1-2" data-name="Layer 1"><path d="M29.32,3.41a1.42,1.42,0,0,1,1.11-.67A2.77,2.77,0,0,1,31.79,3a5.45,5.45,0,0,1,1.32.76,4.18,4.18,0,0,1,.92.92v.57l-.72,3.51q-1.26,5.8-2.38,12a71.76,71.76,0,0,0-1.18,12.14A57.14,57.14,0,0,0,34,25.25c1.27-2.75,2.41-5.55,3.44-8.4s2-5.69,2.78-8.52,1.58-5.51,2.26-8C42.59.06,43,0,43.58.05A9.59,9.59,0,0,1,45.5.46a8.7,8.7,0,0,1,1.8.76c.53.31.79.57.79.8q-1.64,5.28-2.78,9.69c-.77,2.95-1.4,5.63-1.9,8.07s-.86,4.63-1.08,6.6A48,48,0,0,0,42,31.63a15.16,15.16,0,0,0,1.25,6.63,10.58,10.58,0,0,0,3.55,4.12,13.64,13.64,0,0,1-1.46.53l-.74.22a.77.77,0,0,1-.32,0,.55.55,0,0,0-.21,0h-.39a5,5,0,0,1-2.47-.55,5.6,5.6,0,0,1-2.06-1.9,10.49,10.49,0,0,1-1.42-3.36,20.45,20.45,0,0,1-.53-5c0-.61,0-1.25.08-1.92s.1-1.36.16-2.06a4.47,4.47,0,0,0,0-1.11c0-.09,0-.14-.07-.14s0-.06,0-.19.12-.53.28-1.2q-2,4.08-4,7.39a31.31,31.31,0,0,1-3.6,5.09v.14a4,4,0,0,1-1.37,1.08,9.6,9.6,0,0,1-1.89.79,5.84,5.84,0,0,1-1.73.29c-.51,0-.8-.14-.87-.43-.16-.93-.28-1.9-.36-2.9s-.12-2-.12-3.1,0-2.06.1-3.1.16-2.12.29-3.24A79.44,79.44,0,0,1,20,34.63a38,38,0,0,1-4.73,5.79,22.2,22.2,0,0,1-5.33,4,12.79,12.79,0,0,1-6,1.46,4.2,4.2,0,0,1-1.59-.36A4.2,4.2,0,0,1,.88,44.4a3.31,3.31,0,0,1-.36-4,15.26,15.26,0,0,0,2.23,1.17,5.24,5.24,0,0,0,2,.51,9.5,9.5,0,0,0,5.64-1.92,24,24,0,0,0,5-5,47.46,47.46,0,0,0,4.32-7c1.33-2.6,2.53-5.21,3.62-7.85s2-5.17,2.86-7.59l2.09-6.21v0l.45-1.37c.15-.43.3-.89.46-1.37v0Z"/><path d="M48,24.29c.13-.19.48-.32,1-.39a8.53,8.53,0,0,1,1.75,0,7.71,7.71,0,0,1,1.61.34c.46.16.64.34.55.53-.19.54-.39,1.08-.6,1.61L51.69,28c-.26.68-.51,1.34-.77,2s-.48,1.3-.67,1.94c-.32,1-.58,1.83-.77,2.62s-.22,1.24-.09,1.36q.72-.09,2.64-2.16a8.42,8.42,0,0,0,1-1.17c.32-.43.63-.87.91-1.32-.06.06,0,0,0-.15l.34-.52a.89.89,0,0,1,.74-.29,2.24,2.24,0,0,1,1,.21,2.19,2.19,0,0,1,.75.58.64.64,0,0,1,.09.74,1.14,1.14,0,0,0-.17.27.72.72,0,0,1-.16.26h0a12,12,0,0,1-1,1.44c-.38.51-.76,1-1.15,1.44a20.32,20.32,0,0,1-3.24,3.12,5.33,5.33,0,0,1-2.85,1.25,3.35,3.35,0,0,1-3-1.2,5.49,5.49,0,0,1-.86-3.17,11,11,0,0,1,.19-2c.13-.71.27-1.38.43-2a16.29,16.29,0,0,1,.53-1.58c.22-.58.46-1.15.7-1.71s.48-1.1.72-1.63.44-1,.6-1.37V25l.24-.53Zm1.59-7.15a4,4,0,0,1,1.51-2,3.35,3.35,0,0,1,2.18-.65,2.31,2.31,0,0,1,1.88,1.11,2.25,2.25,0,0,1,0,2.25v0a4.11,4.11,0,0,1-1.51,1.92,3.33,3.33,0,0,1-2.23.67,2.19,2.19,0,0,1-1.92-1.08,2.48,2.48,0,0,1,0-2.28Z"/><path d="M63.59,31.3a1,1,0,0,1-.84.36,2.62,2.62,0,0,1-1-.27,1.77,1.77,0,0,1-.72-.62.56.56,0,0,1,0-.72,12.57,12.57,0,0,0,1.1-1.75c.32-.63.61-1.26.87-1.9a3.49,3.49,0,0,1,.21-.48,7.45,7.45,0,0,0,.32-.7c.09-.24.16-.44.21-.62s0-.26,0-.26a2.38,2.38,0,0,0-1.47.78,11.91,11.91,0,0,0-1.41,1.77A19.32,19.32,0,0,0,59.66,29c-.35.71-.63,1.31-.82,1.79A8.7,8.7,0,0,0,58.53,32a6.91,6.91,0,0,0-.12,1.27,4.31,4.31,0,0,0,.48,2,1.68,1.68,0,0,0,1.63.91,3.46,3.46,0,0,0,1.73-.5A10.29,10.29,0,0,0,64,34.44a15.14,15.14,0,0,0,1.65-1.8c.53-.67,1-1.36,1.47-2.06a.74.74,0,0,1,.72-.34,2.84,2.84,0,0,1,1,.19,1.93,1.93,0,0,1,.79.53.56.56,0,0,1,.1.67,32.75,32.75,0,0,1-2,2.83,20.9,20.9,0,0,1-2.43,2.61A12.68,12.68,0,0,1,62.56,39a6.5,6.5,0,0,1-3,.75,5.66,5.66,0,0,1-4.44-1.46,5.78,5.78,0,0,1-1.41-4.1A12,12,0,0,1,54,31.92a12.7,12.7,0,0,1,.72-2.45,18.68,18.68,0,0,1,1.46-2.95,16,16,0,0,1,2.18-2.86,12.65,12.65,0,0,1,2.76-2.16,6.4,6.4,0,0,1,3.2-.86,2.39,2.39,0,0,1,2.13.89,3.71,3.71,0,0,1,.6,2.13,6.85,6.85,0,0,1-.24,1.8,12.13,12.13,0,0,1-.48,1.47c-.35.73-.75,1.48-1.2,2.23A18.59,18.59,0,0,1,63.59,31.3Z"/><path d="M68.58,39.74a.56.56,0,0,1-.26.12,1.15,1.15,0,0,1-.31.08,3.59,3.59,0,0,1-1.15-.1,5.53,5.53,0,0,1-1.2-.43,3.28,3.28,0,0,1-.94-.67,1,1,0,0,1-.31-.77q.72-2,1.65-4.56t2-5.5C68.8,26,69.54,24,70.31,22s1.53-4,2.28-5.93,1.49-3.74,2.21-5.47,1.38-3.26,2-4.61a1.74,1.74,0,0,1,1.2-.6,6.61,6.61,0,0,1,1.83-.07,4.69,4.69,0,0,1,1.56.41c.43.21.56.45.4.74l0,0c-.09.26-.2.51-.31.75s-.22.49-.31.74L75.59,21.55l.87-.48a7.65,7.65,0,0,1,1.68-.62,6.89,6.89,0,0,1,1.63-.24,1.59,1.59,0,0,1,1,.33c.27.23.3.56.07,1l.1-.19-.48,2.06c-.19.84-.43,1.79-.7,2.86s-.52,2.17-.74,3.29-.42,2.2-.58,3.24a17.7,17.7,0,0,0-.24,2.61c0,.39,0,.7,0,.94s0,.38.12.41a2.74,2.74,0,0,0,1.29-.72,16.56,16.56,0,0,0,1.68-1.61A22.68,22.68,0,0,0,83,32.5,10.42,10.42,0,0,0,84,30.77a.78.78,0,0,1,.72-.36,2.3,2.3,0,0,1,1,.19,2.17,2.17,0,0,1,.82.58.57.57,0,0,1,.07.74v-.05A23.15,23.15,0,0,1,85,34.51a23.81,23.81,0,0,1-2.42,2.93,17.93,17.93,0,0,1-2.83,2.4,5.16,5.16,0,0,1-2.88,1,3.23,3.23,0,0,1-1.75-.34A2.93,2.93,0,0,1,74,39.43a4.9,4.9,0,0,1-.63-1.68,11.8,11.8,0,0,1-.19-2.13,18.27,18.27,0,0,1,.1-1.88q.09-1,.24-2-1.25,2-2.45,3.93l-2.4,3.94Z"/><path d="M94.89,20.64a2.7,2.7,0,0,1,2,.94,5,5,0,0,1,1,2,4.05,4.05,0,0,1,2,.36c.56.27.76.65.6,1.13-.07.16-.15.37-.24.64l-.24.65-1.18,2.91a23.75,23.75,0,0,0-.89,2.61c-.28,1-.52,1.83-.69,2.62A3.66,3.66,0,0,0,97,35.9a3.31,3.31,0,0,0,1-.62,21,21,0,0,0,1.73-1.58A9.46,9.46,0,0,0,101,32.16a17.76,17.76,0,0,0,1-1.68,2,2,0,0,1,1.15-.79,2,2,0,0,1,1.18,0,1.1,1.1,0,0,1,.67.75,1.65,1.65,0,0,1-.31,1.32,13.11,13.11,0,0,0-1,1.29c-.26.35-.52.73-.79,1.13a10.94,10.94,0,0,1-.8,1,25.58,25.58,0,0,1-3.31,3.07A5.3,5.3,0,0,1,96,39.6a3.54,3.54,0,0,1-2.47-.67,3.88,3.88,0,0,1-1.18-1.87,8.32,8.32,0,0,1-2.06,1.8,5.2,5.2,0,0,1-2.59.79c-1.6.06-2.71-.39-3.31-1.35a6.59,6.59,0,0,1-.92-3.6,14.65,14.65,0,0,1,.39-3.31,16.23,16.23,0,0,1,1.75-4.13,16.94,16.94,0,0,1,2.69-3.45,12.72,12.72,0,0,1,3.24-2.35A7,7,0,0,1,94.89,20.64ZM88.6,35.9A3.29,3.29,0,0,0,91,34.3a17.62,17.62,0,0,0,2.06-3.72v0c.2-.57.41-1.18.65-1.82s.46-1.26.65-1.87a4.49,4.49,0,0,0,.38-1.78,1,1,0,0,0-.12-.5.61.61,0,0,0-.5-.27,2.21,2.21,0,0,0-1.46.56,7.88,7.88,0,0,0-1.54,1.6,14.31,14.31,0,0,0-1.37,2.33,12.35,12.35,0,0,0-.91,2.71c0,.1-.08.28-.14.53s-.14.55-.22.87-.15.65-.22,1a5.67,5.67,0,0,0-.09.92,2.53,2.53,0,0,0,.09.72C88.33,35.81,88.44,35.9,88.6,35.9Z"/><path d="M108.09,36.24a3.49,3.49,0,0,0,1.73-.5,10.23,10.23,0,0,0,1.72-1.3,15.2,15.2,0,0,0,1.66-1.8,23.43,23.43,0,0,0,1.46-2.06.75.75,0,0,1,.72-.34,2.86,2.86,0,0,1,1,.19,2,2,0,0,1,.79.53.54.54,0,0,1,.09.67,30.69,30.69,0,0,1-2,2.83,20.83,20.83,0,0,1-2.42,2.61A13.18,13.18,0,0,1,110.13,39a6.53,6.53,0,0,1-3,.75,5.64,5.64,0,0,1-4.44-1.46,5.75,5.75,0,0,1-1.42-4.1,12,12,0,0,1,.24-2.26,13.45,13.45,0,0,1,.72-2.45,18,18,0,0,1,1.47-2.95,16,16,0,0,1,2.18-2.86,12.42,12.42,0,0,1,2.76-2.16,6.39,6.39,0,0,1,3.19-.86,2.4,2.4,0,0,1,2.14.89,3.71,3.71,0,0,1,.6,2.13,6.83,6.83,0,0,1-.24,1.79,11.9,11.9,0,0,1-.48,1.46,20.76,20.76,0,0,1-2.88,4.5,20.78,20.78,0,0,1-4.56,3.92A1.73,1.73,0,0,0,108.09,36.24Zm-1.68-5.47c-.07.22-.14.49-.22.79a7.82,7.82,0,0,0-.17.84,15.42,15.42,0,0,0,2.69-2.66,14,14,0,0,0,1.87-3.39l.22-.48c.11-.22.22-.45.31-.67a4.09,4.09,0,0,0,.22-.6c0-.18,0-.26,0-.26a2.41,2.41,0,0,0-1.53.81A10.6,10.6,0,0,0,108.33,27a18.68,18.68,0,0,0-1.18,2.13c-.33.72-.58,1.29-.74,1.71Z"/><path d="M120.71,36.05a2.94,2.94,0,0,0,1.47-.46,8.72,8.72,0,0,0,1.6-1.22,21.76,21.76,0,0,0,1.66-1.75c.56-.66,1.11-1.34,1.66-2a.85.85,0,0,1,.76-.34,2.21,2.21,0,0,1,1,.22,1.87,1.87,0,0,1,.72.57.56.56,0,0,1,0,.7c-.64.93-1.34,1.85-2.11,2.78A20,20,0,0,1,125,37a12.71,12.71,0,0,1-2.78,1.8,7.35,7.35,0,0,1-3.12.69,4,4,0,0,1-3.43-2,9.2,9.2,0,0,1-1-4.63,22.9,22.9,0,0,1,.75-5.47,45.7,45.7,0,0,1,2-6.15,55,55,0,0,1,2.9-6.12,46.12,46.12,0,0,1,3.44-5.37,22.13,22.13,0,0,1,3.6-3.89,6.7,6.7,0,0,1,3.45-1.7,2.85,2.85,0,0,1,2.19,1,3.73,3.73,0,0,1,.69,2.31,9.23,9.23,0,0,1-.21,1.87c-.15.67-.32,1.34-.51,2s-.4,1.29-.62,1.9-.42,1.12-.58,1.53a53,53,0,0,1-3,6.08,53.37,53.37,0,0,1-3.24,5c-1.09,1.48-2.13,2.77-3.12,3.89s-1.85,2.08-2.59,2.88l-.29.34a7.1,7.1,0,0,0,.1,2.4q.24.86,1,.72Zm7.68-21.41a11.42,11.42,0,0,0,.55-1.25c.27-.67.54-1.37.8-2.11a19.22,19.22,0,0,0,.57-2c.13-.59.08-.91-.14-.94a3,3,0,0,0-1.63,1,13.51,13.51,0,0,0-1.8,2.33A32.1,32.1,0,0,0,124.89,15c-.61,1.26-1.2,2.6-1.75,4s-1.08,2.85-1.54,4.32-.86,2.89-1.18,4.27a53.22,53.22,0,0,0,3.7-5A58.3,58.3,0,0,0,128.39,14.64Z"/><path d="M146.58,23.23l.22,0,.21,0,.72,0q1-3.06,1.81-5.84c.55-1.85,1.08-3.63,1.55-5.32L152.29,8a38.42,38.42,0,0,0-4.36,1.44,21,21,0,0,0-3.46,1.73,2.06,2.06,0,0,1-1.39.07,1.09,1.09,0,0,1-.67-.72,1.5,1.5,0,0,1,.19-1.15,3.62,3.62,0,0,1,1.29-1.27l0,.05a16.18,16.18,0,0,1,3.6-1.87,36.5,36.5,0,0,1,4.82-1.48,50.2,50.2,0,0,1,5.45-1,44.11,44.11,0,0,1,5.57-.36,31.32,31.32,0,0,1,5.88.43,18.86,18.86,0,0,1,4.92,1.48,9.68,9.68,0,0,1,3.38,2.57,5.64,5.64,0,0,1,1.27,3.71,9.3,9.3,0,0,1-.38,2.3A11.14,11.14,0,0,1,176,17.9,18.93,18.93,0,0,1,172.17,21a27.09,27.09,0,0,1-4.71,2.3,43.88,43.88,0,0,1-5.13,1.58,50.9,50.9,0,0,1-5.12.95,40.25,40.25,0,0,1-4.58.39L151,30.91q-1.11,3.12-2,5.88t-1.56,4.78a1.52,1.52,0,0,1-.87.53,10.61,10.61,0,0,1-1.63.38,16.19,16.19,0,0,1-1.8.19,4.51,4.51,0,0,1-1.37-.09l1-3.2c.4-1.23.82-2.56,1.27-4s.92-2.93,1.41-4.51,1-3.19,1.47-4.83l-1.2-.19h.05q-.83,0-1-.48a1.16,1.16,0,0,1,.05-.91,2.15,2.15,0,0,1,.72-.86A1.68,1.68,0,0,1,146.58,23.23ZM163.05,6.62a37.39,37.39,0,0,0-5.28.29,1.21,1.21,0,0,1,.91.91q-.92,3-2.19,6.94c-.84,2.61-1.78,5.46-2.8,8.57a36.5,36.5,0,0,0,5.64-.89,30.15,30.15,0,0,0,5.59-1.9,22,22,0,0,0,4.7-2.85,9.88,9.88,0,0,0,3-3.77,6,6,0,0,0,.29-1.78,3.63,3.63,0,0,0-1-2.59,7.43,7.43,0,0,0-2.5-1.68A14.58,14.58,0,0,0,166.17,7,26.59,26.59,0,0,0,163.05,6.62Z"/><path d="M174.57,26.5a4.35,4.35,0,0,1,.28-.48,3.94,3.94,0,0,1,.72-.82,5.32,5.32,0,0,1,1.16-.77,4.51,4.51,0,0,1,1.58-.43,7.52,7.52,0,0,1,1.87-2.42,4.27,4.27,0,0,1,2.55-1.08,3.4,3.4,0,0,1,2.92,1.34,5.73,5.73,0,0,1,1,3.55,13.76,13.76,0,0,1-1,5c-.26.61-.53,1.2-.82,1.76a15.05,15.05,0,0,1-1,1.6h0q1.63,0,4.17-3.5v.05s0-.05,0-.05,0,0,0-.1l.05,0-.05,0s.05,0,.05,0a1,1,0,0,1,.14-.24.14.14,0,0,0,.05-.1,1.84,1.84,0,0,1,.84-.67,1.58,1.58,0,0,1,1-.12,1,1,0,0,1,.7.65,2.48,2.48,0,0,1-.17,1.63,12.85,12.85,0,0,1-1.49,2.11,14.18,14.18,0,0,1-1.84,1.8,10.76,10.76,0,0,1-2,1.3,5.51,5.51,0,0,1-2.07.55,3.71,3.71,0,0,1-1.1,0,7.48,7.48,0,0,1-.91-.17A14.07,14.07,0,0,1,178.38,39a5.94,5.94,0,0,1-2.85.79,3.35,3.35,0,0,1-2.86-1.32,5.65,5.65,0,0,1-1-3.48,13.19,13.19,0,0,1,1.15-5.13V30a8.27,8.27,0,0,1,.77-1.85c.32-.56.65-1.11,1-1.65Zm2.11,9.5a3.2,3.2,0,0,0,1.87-1.06,6.11,6.11,0,0,1-1-1.75,10.16,10.16,0,0,1-.48-2,21.65,21.65,0,0,0-.62,2.09,7.26,7.26,0,0,0-.24,1.66C176.25,35.63,176.39,36,176.68,36ZM182,29.81a16.76,16.76,0,0,0,.86-2.52,7.87,7.87,0,0,0,.24-1.71,2.58,2.58,0,0,0-.14-1,.67.67,0,0,0-.29-.31,1.58,1.58,0,0,0-.58.65,5.5,5.5,0,0,0-.5,1.25,10.39,10.39,0,0,0-.34,1.63,13.38,13.38,0,0,0-.12,1.8,10.23,10.23,0,0,0,.15,1.77A13,13,0,0,0,182,29.81Z"/><path d="M193.05,39.74a6.89,6.89,0,0,1-4.54-1.58,5.78,5.78,0,0,1-1.75-4.32,1.24,1.24,0,0,1-.29-.41,1.16,1.16,0,0,1,0-.65,12.71,12.71,0,0,0,.6-1.29,14,14,0,0,1,.6-1.3,5.13,5.13,0,0,1,.84-1.15,3.49,3.49,0,0,1,1.32-.82c.54-.73,1-1.44,1.51-2.11s.86-1.26,1.18-1.77a4.45,4.45,0,0,1,.33-1.78A3.31,3.31,0,0,1,194,21.24a5,5,0,0,1,2-.79,15.28,15.28,0,0,1,3.24-.19,13.55,13.55,0,0,0-1,2.44,7.59,7.59,0,0,0-.26,1.83,10.44,10.44,0,0,0,.36,2.73,22.41,22.41,0,0,0,.84,2.55,25.94,25.94,0,0,1,.84,2.61,4.28,4.28,0,0,1,0,2.33v0a.16.16,0,0,0,0,.14c0,.13,0,.2,0,.2s0,0,.08-.08.07-.13.14-.26a25.12,25.12,0,0,0,2-2c.69-.75,1.34-1.5,1.94-2.23a.89.89,0,0,1,.77-.27,3,3,0,0,1,1,.22,2.1,2.1,0,0,1,.74.5.47.47,0,0,1,.05.65,22.45,22.45,0,0,1-5.86,6.07,11,11,0,0,1-6.14,2.09h-.84A3,3,0,0,1,193.05,39.74Zm-.48-10.65c-.55.7-1,1.39-1.49,2.06s-1,1.38-1.54,2.11a2.37,2.37,0,0,0,.15,1.25,2.84,2.84,0,0,0,.67,1,2.9,2.9,0,0,0,1,.62,3.3,3.3,0,0,0,1.15.22,1.62,1.62,0,0,0,1.2-.7,2.59,2.59,0,0,0,.43-1.7,4.54,4.54,0,0,0-.1-1.25c-.09-.51-.22-1.06-.38-1.63-.19-.8-.37-1.68-.53-2.64ZM200,34.94c.12-.19.19-.24.19-.14Z"/><path d="M224.87,12.48a1.21,1.21,0,0,1,1,.43.9.9,0,0,1,.12.84,2.32,2.32,0,0,1-.6.94,2.43,2.43,0,0,1-1.17.67,5.36,5.36,0,0,0-.7,0h-.74c-1.15,0-2.43.06-3.84.17s-2.87.26-4.37.46q-1.68,4.08-3.12,7.89c-1,2.55-1.87,5.24-2.74,8.09-.32,1-.57,1.83-.77,2.62s-.22,1.24-.09,1.36a3,3,0,0,0,1-.62c.48-.38,1.07-.91,1.77-1.58h0a10.29,10.29,0,0,0,1.2-1.49c.35-.55.68-1.07,1-1.59a2.11,2.11,0,0,1,1.13-.79,2,2,0,0,1,1.15,0,1.09,1.09,0,0,1,.7.7,1.49,1.49,0,0,1-.29,1.29v0l-.34.52c-.35.55-.72,1.12-1.12,1.71a9.12,9.12,0,0,1-1,1.27v-.05a20.23,20.23,0,0,1-3.28,3.15,5.47,5.47,0,0,1-2.86,1.22,3.28,3.28,0,0,1-3-1.2,5.39,5.39,0,0,1-.86-3.12,10.35,10.35,0,0,1,.19-1.94,21.51,21.51,0,0,1,.53-2.14c.8-2.75,1.61-5.18,2.45-7.3s1.68-4.2,2.54-6.28l.38-.87h-.19a2.06,2.06,0,0,1-1.48-.19,1,1,0,0,1-.49-.84,1.56,1.56,0,0,1,.44-1,2.56,2.56,0,0,1,1.25-.74l1.77-.39,2.45-6a2.34,2.34,0,0,1,1.32-.8,6.81,6.81,0,0,1,1.8-.26,3.07,3.07,0,0,1,1.68.41.86.86,0,0,1,.24,1.22l.05,0-.6,1.35q-.27.57-.48,1.08c-.15.33-.29.68-.43,1s-.32.77-.51,1.25c1.12-.13,2.22-.23,3.29-.31s2.09-.12,3.05-.12A19.71,19.71,0,0,1,224.87,12.48Z"/><path d="M232.31,23.23l.21,0,.22,0,.72,0q1-3.06,1.8-5.84c.56-1.85,1.08-3.63,1.56-5.32L238,8a38.6,38.6,0,0,0-4.37,1.44,21.29,21.29,0,0,0-3.45,1.73,2.08,2.08,0,0,1-1.4.07,1.11,1.11,0,0,1-.67-.72,1.6,1.6,0,0,1,.19-1.15,3.75,3.75,0,0,1,1.3-1.27l-.05.05a16.64,16.64,0,0,1,3.6-1.87A36.2,36.2,0,0,1,238,4.8a50.45,50.45,0,0,1,5.44-1A44.23,44.23,0,0,1,249,3.46a31.19,31.19,0,0,1,5.88.43,18.86,18.86,0,0,1,4.92,1.48,9.63,9.63,0,0,1,3.39,2.57,5.7,5.7,0,0,1,1.27,3.71,8.93,8.93,0,0,1-.39,2.3,11.14,11.14,0,0,1-2.4,3.95A18.65,18.65,0,0,1,257.89,21a27.34,27.34,0,0,1-4.7,2.3,44,44,0,0,1-5.14,1.58,50.71,50.71,0,0,1-5.11.95,40.63,40.63,0,0,1-4.58.39l-1.64,4.7q-1.09,3.12-2,5.88t-1.56,4.78c-.09.19-.38.37-.86.53a10.61,10.61,0,0,1-1.63.38,16.19,16.19,0,0,1-1.8.19,4.51,4.51,0,0,1-1.37-.09l1-3.2c.4-1.23.83-2.56,1.27-4l1.42-4.51c.5-1.59,1-3.19,1.46-4.83l-1.2-.19h.05c-.54,0-.87-.19-1-.48a1.12,1.12,0,0,1,.05-.91,2.15,2.15,0,0,1,.72-.86A1.66,1.66,0,0,1,232.31,23.23ZM248.77,6.62a37.39,37.39,0,0,0-5.28.29,1.18,1.18,0,0,1,.91.91q-.9,3-2.18,6.94c-.85,2.61-1.78,5.46-2.81,8.57a36.5,36.5,0,0,0,5.64-.89,29.9,29.9,0,0,0,5.59-1.9,22.35,22.35,0,0,0,4.71-2.85,9.85,9.85,0,0,0,3-3.77,5.66,5.66,0,0,0,.29-1.78,3.59,3.59,0,0,0-1-2.59,7.39,7.39,0,0,0-2.49-1.68A14.66,14.66,0,0,0,251.89,7,26.15,26.15,0,0,0,248.77,6.62Z"/><path d="M263.08,4.13a15.8,15.8,0,0,1,5.11-1.85A75.31,75.31,0,0,1,276.25,1c3-.33,6.23-.58,9.63-.74S292.53,0,295.67,0s6.15.08,8.76.24a42.86,42.86,0,0,1,5.93.67c.22.07.19.3-.1.7a9.68,9.68,0,0,1-1.2,1.32,15.46,15.46,0,0,1-1.61,1.32,2.6,2.6,0,0,1-1.32.6c-.64-.13-1.46-.24-2.47-.34s-2.16-.17-3.45-.24S297.5,4.15,296,4.1,292.88,4,291.25,4c-1.92,0-3.86,0-5.83.1s-3.91.14-5.83.24a1.19,1.19,0,0,1,.62.77q-.57,2-1.46,4.68c-.59,1.8-1.25,3.76-2,5.85s-1.47,4.26-2.26,6.48-1.54,4.39-2.27,6.51q-1.31,3.73-2.55,7.2t-1.92,5.61l0,.1c-.09.19-.38.37-.86.53a10.89,10.89,0,0,1-1.63.38,16.19,16.19,0,0,1-1.8.19,4.48,4.48,0,0,1-1.37-.09q.62-1.83,1.58-4.78t2.07-6.48Q266.81,27.8,268,24c.8-2.55,1.56-5,2.28-7.4s1.39-4.6,2-6.64,1.13-3.75,1.51-5.09c-2.31.25-4.35.57-6.15.93a12.56,12.56,0,0,0-4,1.37,1.86,1.86,0,0,1-1.34.07,1.06,1.06,0,0,1-.68-.69,1.58,1.58,0,0,1,.2-1.15A3.28,3.28,0,0,1,263.08,4.13Z"/></g></g></svg>